<svg width="237" height="200" viewBox="0 0 237 200" fill="none" xmlns="http://www.w3.org/2000/svg">
<rect width="236.585" height="200" rx="20" fill="url(#paint0_linear_268_10)"/>
<path d="M54.8779 75.61H181.707M54.8779 80.488H181.707M74.3901 114.634H113.415M74.3901 129.269H93.9023M69.5121 148.781H167.073C170.954 148.781 174.677 147.239 177.421 144.494C180.165 141.75 181.707 138.028 181.707 134.147V65.8539C181.707 61.9727 180.165 58.2504 177.421 55.506C174.677 52.7615 170.954 51.2197 167.073 51.2197H69.5121C65.6309 51.2197 61.9086 52.7615 59.1642 55.506C56.4197 58.2504 54.8779 61.9727 54.8779 65.8539V134.147C54.8779 138.028 56.4197 141.75 59.1642 144.494C61.9086 147.239 65.6309 148.781 69.5121 148.781Z" stroke="white" stroke-width="8" stroke-linecap="round" stroke-linejoin="round"/>
<defs>
<linearGradient id="paint0_linear_268_10" x1="118.293" y1="0" x2="118.293" y2="200" gradientUnits="userSpaceOnUse">
<stop stop-color="#E9EEF4"/>
<stop offset="0.572917" stop-color="#FDB970"/>
<stop offset="1" stop-color="#045664"/>
</linearGradient>
</defs>
</svg>
