<svg width="237" height="200" viewBox="0 0 237 200" fill="none" xmlns="http://www.w3.org/2000/svg">
<rect width="236.585" height="200" rx="20" fill="white"/>
<path d="M15 39.3902H141.829ZM15 44.2683H141.829ZM34.5122 78.4146H73.5366ZM34.5122 93.0488H54.0244ZM29.6341 112.561H127.195C131.076 112.561 134.799 111.019 137.543 108.275C140.287 105.53 141.829 101.808 141.829 97.9268V29.6341C141.829 25.7529 140.287 22.0307 137.543 19.2862C134.799 16.5418 131.076 15 127.195 15H29.6341C25.7529 15 22.0307 16.5418 19.2862 19.2862C16.5418 22.0307 15 25.7529 15 29.6341V97.9268C15 101.808 16.5418 105.53 19.2862 108.275C22.0307 111.019 25.7529 112.561 29.6341 112.561Z" fill="#01B8FB"/>
<path d="M15 39.3902H141.829M15 44.2683H141.829M34.5122 78.4146H73.5366M34.5122 93.0488H54.0244M29.6341 112.561H127.195C131.076 112.561 134.799 111.019 137.543 108.275C140.287 105.53 141.829 101.808 141.829 97.9268V29.6341C141.829 25.7529 140.287 22.0307 137.543 19.2862C134.799 16.5418 131.076 15 127.195 15H29.6341C25.7529 15 22.0307 16.5418 19.2862 19.2862C16.5418 22.0307 15 25.7529 15 29.6341V97.9268C15 101.808 16.5418 105.53 19.2862 108.275C22.0307 111.019 25.7529 112.561 29.6341 112.561Z" stroke="#EBECF1" stroke-width="8" stroke-linecap="round" stroke-linejoin="round"/>
<path d="M55 75.3902H181.829ZM55 80.2683H181.829ZM74.5122 114.415H113.537ZM74.5122 129.049H94.0244ZM69.6341 148.561H167.195C171.076 148.561 174.799 147.019 177.543 144.275C180.287 141.53 181.829 137.808 181.829 133.927V65.6341C181.829 61.7529 180.287 58.0307 177.543 55.2862C174.799 52.5418 171.076 51 167.195 51H69.6341C65.7529 51 62.0307 52.5418 59.2862 55.2862C56.5418 58.0307 55 61.7529 55 65.6341V133.927C55 137.808 56.5418 141.53 59.2862 144.275C62.0307 147.019 65.7529 148.561 69.6341 148.561Z" fill="#F1720E"/>
<path d="M55 75.3902H181.829M55 80.2683H181.829M74.5122 114.415H113.537M74.5122 129.049H94.0244M69.6341 148.561H167.195C171.076 148.561 174.799 147.019 177.543 144.275C180.287 141.53 181.829 137.808 181.829 133.927V65.6341C181.829 61.7529 180.287 58.0307 177.543 55.2862C174.799 52.5418 171.076 51 167.195 51H69.6341C65.7529 51 62.0307 52.5418 59.2862 55.2862C56.5418 58.0307 55 61.7529 55 65.6341V133.927C55 137.808 56.5418 141.53 59.2862 144.275C62.0307 147.019 65.7529 148.561 69.6341 148.561Z" stroke="#EBECF1" stroke-width="8" stroke-linecap="round" stroke-linejoin="round"/>
<path d="M97 111.39H223.829ZM97 116.268H223.829ZM116.512 150.415H155.537ZM116.512 165.049H136.024ZM111.634 184.561H209.195C213.076 184.561 216.799 183.019 219.543 180.275C222.287 177.53 223.829 173.808 223.829 169.927V101.634C223.829 97.7529 222.287 94.0307 219.543 91.2862C216.799 88.5418 213.076 87 209.195 87H111.634C107.753 87 104.031 88.5418 101.286 91.2862C98.5418 94.0307 97 97.7529 97 101.634V169.927C97 173.808 98.5418 177.53 101.286 180.275C104.031 183.019 107.753 184.561 111.634 184.561Z" fill="#010A91"/>
<path d="M97 111.39H223.829M97 116.268H223.829M116.512 150.415H155.537M116.512 165.049H136.024M111.634 184.561H209.195C213.076 184.561 216.799 183.019 219.543 180.275C222.287 177.53 223.829 173.808 223.829 169.927V101.634C223.829 97.7529 222.287 94.0307 219.543 91.2862C216.799 88.5418 213.076 87 209.195 87H111.634C107.753 87 104.031 88.5418 101.286 91.2862C98.5418 94.0307 97 97.7529 97 101.634V169.927C97 173.808 98.5418 177.53 101.286 180.275C104.031 183.019 107.753 184.561 111.634 184.561Z" stroke="#EBECF1" stroke-width="8" stroke-linecap="round" stroke-linejoin="round"/>
</svg>
